<?xml version="1.0" encoding="UTF-8"?>
<!DOCTYPE svg PUBLIC "-//W3C//DTD SVG 1.1//EN" "http://www.w3.org/Graphics/SVG/1.1/DTD/svg11.dtd">
<svg version="1.1" xmlns="http://www.w3.org/2000/svg" xmlns:xlink="http://www.w3.org/1999/xlink" x="0px" y="0px" width="128" height="128" viewBox="0, 0, 128, 128">
  <g id="Background">
    <rect x="0" y="0" width="128" height="128" fill="#000000" fill-opacity="0"/>
  </g>
  <g id="Background">
    <path d="M18.093,6 L109.907,6 C116.561,6 122,11.439 122,18.093 L122,109.907 C122,116.561 116.561,122 109.907,122 L18.093,122 C11.439,122 6,116.561 6,109.907 L6,18.093 C6,11.439 11.439,6 18.093,6" fill="#727272"/>
    <path d="M101.133,89.944 C104.142,86.378 106.537,82.359 108.167,78.062 C109.773,73.81 110.674,69.215 110.701,64.443 C110.733,54.295 106.76,44.868 100.142,37.612 C93.229,30.035 83.18,24.541 71.343,23.203 C58.675,21.77 46.389,25.349 37.019,32.588 C27.176,40.188 20.829,51.551 20.824,64.525 C20.824,70.639 22.253,76.435 24.792,81.642 C27.301,86.784 30.917,91.332 35.311,95.059 C32.63,100.936 29.026,108.765 26.559,114.131 C26.19,114.935 26.469,115.784 27.236,116.213 C28.013,116.638 29.113,116.524 29.922,115.971 C35.433,112.195 43.349,106.76 48.865,102.965 C55.783,105.541 63.406,106.527 71.189,105.636 C78.622,104.782 85.35,102.293 91.041,98.708 C95.741,101.334 100.311,103.878 104.75,106.348 C105.29,106.646 106.007,106.527 106.509,106.039 C107.01,105.554 107.199,104.827 106.96,104.234 C105.033,99.535 103.092,94.767 101.133,89.944 z M71.202,95.41 C61.785,96.224 52.82,93.369 46.075,87.902 C39.087,82.244 34.639,73.942 34.644,64.516 C34.649,55.099 39.11,46.764 46.12,41.079 C52.893,35.585 61.877,32.693 71.326,33.497 C80.28,34.251 88.012,38.224 93.383,43.887 C98.589,49.376 101.723,56.615 101.7,64.451 C101.677,72.284 98.504,79.523 93.264,85.012 C87.87,90.67 80.153,94.63 71.202,95.41 z M50.294,17.49 C46.901,15.298 42.854,13.737 38.448,13.169 C24.774,11.402 12.995,19.654 12.995,31.679 C12.995,35.67 14.317,39.493 16.632,42.819 C20.084,36.434 25.016,30.935 30.893,26.582 C36.616,22.35 43.22,19.243 50.294,17.49 z M113.277,47.76 C114.632,45.385 115.433,42.603 115.446,39.585 C115.478,30.505 108.391,22.193 99.183,21.006 C95.955,20.59 92.876,21.107 90.187,22.35 C95.654,25.282 100.463,29.076 104.366,33.432 C108.18,37.694 111.212,42.535 113.277,47.76" fill="#EBEDED"/>
    <path d="M70.457,37.178 C73.604,37.402 76.078,39.453 76.116,41.786 C76.153,44.12 73.728,45.918 70.562,45.786 C67.398,45.654 64.698,43.549 64.68,41.133 C64.662,38.717 67.311,36.954 70.457,37.178 z M73.402,72.01 C76.828,71.873 80.19,71.737 83.454,71.603 C86.665,71.476 89.807,71.343 92.886,71.215 C92.95,73.253 93.008,75.289 93.068,77.335 C89.971,77.522 86.82,77.723 83.596,77.92 C80.308,78.12 76.937,78.331 73.494,78.54 C73.467,76.357 73.435,74.179 73.402,72.01 z M71.01,82.615 C74.261,82.373 76.828,84.198 76.87,86.707 C76.91,89.214 74.398,91.529 71.119,91.872 C67.841,92.214 65.041,90.379 65.023,87.77 C65.004,85.162 67.759,82.856 71.01,82.615 z M45.276,73.166 C49.331,73.001 53.309,72.832 57.182,72.677 C60.968,72.521 64.675,72.375 68.302,72.225 C68.324,74.425 68.344,76.641 68.366,78.866 C64.725,79.088 60.995,79.322 57.195,79.555 C53.294,79.792 49.299,80.043 45.216,80.295 C45.234,77.905 45.253,75.536 45.276,73.166 z M81.527,59.474 C84.509,59.474 86.879,61.355 86.939,63.689 C86.999,66.022 84.706,68.005 81.706,68.092 C78.705,68.178 76.13,66.27 76.093,63.849 C76.056,61.429 78.545,59.474 81.527,59.474 z M57.167,59.482 C60.647,59.482 63.373,61.516 63.388,64.035 C63.401,66.557 60.679,68.703 57.177,68.809 C53.674,68.914 50.71,66.84 50.72,64.224 C50.728,61.606 53.687,59.482 57.167,59.482 z M45.48,48.905 C54.285,49.175 62.656,49.436 70.604,49.677 C78.166,49.906 85.378,50.13 92.264,50.344 C92.323,52.308 92.378,54.282 92.438,56.259 C85.523,56.186 78.271,56.107 70.681,56.03 C62.689,55.952 54.282,55.857 45.425,55.761 C45.445,53.468 45.463,51.185 45.48,48.905" fill="#EBECEC"/>
  </g>
  <defs/>
</svg>
