<?xml version="1.0" encoding="UTF-8"?>
<!DOCTYPE svg PUBLIC "-//W3C//DTD SVG 1.1//EN" "http://www.w3.org/Graphics/SVG/1.1/DTD/svg11.dtd">
<svg version="1.1" xmlns="http://www.w3.org/2000/svg" xmlns:xlink="http://www.w3.org/1999/xlink" x="0px" y="0px" width="128" height="128" viewBox="0, 0, 128, 128">
  <g id="Background">
    <rect x="0" y="0" width="128" height="128" fill="#000000" fill-opacity="0"/>
  </g>
  <g id="Background">
    <path d="M18.092,6 L109.903,6 C116.552,6 122,11.441 122,18.096 L122,109.902 C122,116.559 116.552,122 109.903,122 L18.092,122 C11.436,122 6,116.559 6,109.902 L6,18.096 C6,11.441 11.436,6 18.092,6" fill="#737370"/>
    <g>
      <path d="M25,112 C21.134,112 18,108.866 18,105 C18,101.134 21.134,98 25,98 C28.866,98 32,101.134 32,105 C32,108.866 28.866,112 25,112 z" fill="#82D1F5"/>
      <path d="M25,112 C21.134,112 18,108.866 18,105 C18,101.134 21.134,98 25,98 C28.866,98 32,101.134 32,105 C32,108.866 28.866,112 25,112 z" fill-opacity="0" stroke="#EBEDED" stroke-width="2"/>
    </g>
    <g>
      <path d="M45,53.539 C41.134,53.539 38,50.405 38,46.539 C38,42.673 41.134,39.539 45,39.539 C48.866,39.539 52,42.673 52,46.539 C52,50.405 48.866,53.539 45,53.539 z" fill="#737370"/>
      <path d="M45,53.539 C41.134,53.539 38,50.405 38,46.539 C38,42.673 41.134,39.539 45,39.539 C48.866,39.539 52,42.673 52,46.539 C52,50.405 48.866,53.539 45,53.539 z" fill-opacity="0" stroke="#EBEDED" stroke-width="2"/>
    </g>
    <g>
      <path d="M45,71 C41.134,71 38,67.866 38,64 C38,60.134 41.134,57 45,57 C48.866,57 52,60.134 52,64 C52,67.866 48.866,71 45,71 z" fill="#82D1F5"/>
      <path d="M45,71 C41.134,71 38,67.866 38,64 C38,60.134 41.134,57 45,57 C48.866,57 52,60.134 52,64 C52,67.866 48.866,71 45,71 z" fill-opacity="0" stroke="#EBEDED" stroke-width="2"/>
    </g>
    <g>
      <path d="M45,90 C41.134,90 38,86.866 38,83 C38,79.134 41.134,76 45,76 C48.866,76 52,79.134 52,83 C52,86.866 48.866,90 45,90 z" fill="#82D1F5"/>
      <path d="M45,90 C41.134,90 38,86.866 38,83 C38,79.134 41.134,76 45,76 C48.866,76 52,79.134 52,83 C52,86.866 48.866,90 45,90 z" fill-opacity="0" stroke="#EBEDED" stroke-width="2"/>
    </g>
    <g>
      <path d="M45,112 C41.134,112 38,108.866 38,105 C38,101.134 41.134,98 45,98 C48.866,98 52,101.134 52,105 C52,108.866 48.866,112 45,112 z" fill="#737370"/>
      <path d="M45,112 C41.134,112 38,108.866 38,105 C38,101.134 41.134,98 45,98 C48.866,98 52,101.134 52,105 C52,108.866 48.866,112 45,112 z" fill-opacity="0" stroke="#EBEDED" stroke-width="2"/>
    </g>
    <g>
      <path d="M25,90 C21.134,90 18,86.866 18,83 C18,79.134 21.134,76 25,76 C28.866,76 32,79.134 32,83 C32,86.866 28.866,90 25,90 z" fill="#737370"/>
      <path d="M25,90 C21.134,90 18,86.866 18,83 C18,79.134 21.134,76 25,76 C28.866,76 32,79.134 32,83 C32,86.866 28.866,90 25,90 z" fill-opacity="0" stroke="#EBEDED" stroke-width="2"/>
    </g>
    <g>
      <path d="M89,83.271 C72.984,83.271 60,70.511 60,54.771 C60,39.031 72.984,26.271 89,26.271 C105.016,26.271 118,37.799 118,53.539 C118,69.279 105.016,83.271 89,83.271 z" fill="#737370"/>
      <path d="M89,83.271 C72.984,83.271 60,70.511 60,54.771 C60,39.031 72.984,26.271 89,26.271 C105.016,26.271 118,37.799 118,53.539 C118,69.279 105.016,83.271 89,83.271 z" fill-opacity="0" stroke="#82D1F5" stroke-width="6"/>
    </g>
    <path d="M88,53.539 L100,62" fill-opacity="0" stroke="#EBEDED" stroke-width="3" stroke-linecap="round" stroke-miterlimit="1"/>
    <path d="M88,53.539 L88,32" fill-opacity="0" stroke="#EBEDED" stroke-width="3" stroke-linecap="round" stroke-miterlimit="1"/>
  </g>
  <defs/>
</svg>
