<?xml version="1.0" encoding="UTF-8"?>
<!DOCTYPE svg PUBLIC "-//W3C//DTD SVG 1.1//EN" "http://www.w3.org/Graphics/SVG/1.1/DTD/svg11.dtd">
<svg version="1.1" xmlns="http://www.w3.org/2000/svg" xmlns:xlink="http://www.w3.org/1999/xlink" x="0px" y="0px" width="500" height="460" viewBox="0, 0, 500, 460">
  <g id="Background">
    <rect x="0" y="0" width="500" height="460" fill="#000000" fill-opacity="0"/>
  </g>
  <g id="Ebene 1">
    <g>
      <path d="M90,292.5 C90,304.926 79.926,315 67.5,315 C55.074,315 45,304.926 45,292.5 C45,280.074 55.074,270 67.5,270 C79.926,270 90,280.074 90,292.5 z" fill="#888A85"/>
      <path d="M90,292.5 C90,304.926 79.926,315 67.5,315 C55.074,315 45,304.926 45,292.5 C45,280.074 55.074,270 67.5,270 C79.926,270 90,280.074 90,292.5 z" fill-opacity="0" stroke="#294270" stroke-width="2"/>
    </g>
    <g>
      <path d="M90,232.5 C90,244.926 79.926,255 67.5,255 C55.074,255 45,244.926 45,232.5 C45,220.074 55.074,210 67.5,210 C79.926,210 90,220.074 90,232.5 z" fill="#EEEEEC"/>
      <path d="M90,232.5 C90,244.926 79.926,255 67.5,255 C55.074,255 45,244.926 45,232.5 C45,220.074 55.074,210 67.5,210 C79.926,210 90,220.074 90,232.5 z" fill-opacity="0" stroke="#294270" stroke-width="2"/>
    </g>
    <g>
      <path d="M150,292.5 C150,304.926 139.926,315 127.5,315 C115.074,315 105,304.926 105,292.5 C105,280.074 115.074,270 127.5,270 C139.926,270 150,280.074 150,292.5 z" fill="#EEEEEC"/>
      <path d="M150,292.5 C150,304.926 139.926,315 127.5,315 C115.074,315 105,304.926 105,292.5 C105,280.074 115.074,270 127.5,270 C139.926,270 150,280.074 150,292.5 z" fill-opacity="0" stroke="#294270" stroke-width="2"/>
    </g>
    <g>
      <path d="M150,232.5 C150,244.926 139.926,255 127.5,255 C115.074,255 105,244.926 105,232.5 C105,220.074 115.074,210 127.5,210 C139.926,210 150,220.074 150,232.5 z" fill="#EEEEEC"/>
      <path d="M150,232.5 C150,244.926 139.926,255 127.5,255 C115.074,255 105,244.926 105,232.5 C105,220.074 115.074,210 127.5,210 C139.926,210 150,220.074 150,232.5 z" fill-opacity="0" stroke="#294270" stroke-width="2"/>
    </g>
    <g>
      <path d="M150,172.5 C150,184.926 139.926,195 127.5,195 C115.074,195 105,184.926 105,172.5 C105,160.074 115.074,150 127.5,150 C139.926,150 150,160.074 150,172.5 z" fill="#EEEEEC"/>
      <path d="M150,172.5 C150,184.926 139.926,195 127.5,195 C115.074,195 105,184.926 105,172.5 C105,160.074 115.074,150 127.5,150 C139.926,150 150,160.074 150,172.5 z" fill-opacity="0" stroke="#294270" stroke-width="2"/>
    </g>
    <g>
      <path d="M150,112.5 C150,124.926 139.926,135 127.5,135 C115.074,135 105,124.926 105,112.5 C105,100.074 115.074,90 127.5,90 C139.926,90 150,100.074 150,112.5 z" fill="#EEEEEC"/>
      <path d="M150,112.5 C150,124.926 139.926,135 127.5,135 C115.074,135 105,124.926 105,112.5 C105,100.074 115.074,90 127.5,90 C139.926,90 150,100.074 150,112.5 z" fill-opacity="0" stroke="#294270" stroke-width="2"/>
    </g>
    <g>
      <path d="M225,172.5 C225,184.926 214.926,195 202.5,195 C190.074,195 180,184.926 180,172.5 C180,160.074 190.074,150 202.5,150 C214.926,150 225,160.074 225,172.5 z" fill="#EEEEEC"/>
      <path d="M225,172.5 C225,184.926 214.926,195 202.5,195 C190.074,195 180,184.926 180,172.5 C180,160.074 190.074,150 202.5,150 C214.926,150 225,160.074 225,172.5 z" fill-opacity="0" stroke="#294270" stroke-width="2"/>
    </g>
    <g>
      <path d="M285,112.5 C285,124.926 274.926,135 262.5,135 C250.074,135 240,124.926 240,112.5 C240,100.074 250.074,90 262.5,90 C274.926,90 285,100.074 285,112.5 z" fill="#EEEEEC"/>
      <path d="M285,112.5 C285,124.926 274.926,135 262.5,135 C250.074,135 240,124.926 240,112.5 C240,100.074 250.074,90 262.5,90 C274.926,90 285,100.074 285,112.5 z" fill-opacity="0" stroke="#294270" stroke-width="2"/>
    </g>
    <g>
      <path d="M360,292.5 C360,304.926 349.926,315 337.5,315 C325.074,315 315,304.926 315,292.5 C315,280.074 325.074,270 337.5,270 C349.926,270 360,280.074 360,292.5 z" fill="#EEEEEC"/>
      <path d="M360,292.5 C360,304.926 349.926,315 337.5,315 C325.074,315 315,304.926 315,292.5 C315,280.074 325.074,270 337.5,270 C349.926,270 360,280.074 360,292.5 z" fill-opacity="0" stroke="#294270" stroke-width="2"/>
    </g>
    <g>
      <path d="M360,232.5 C360,244.926 349.926,255 337.5,255 C325.074,255 315,244.926 315,232.5 C315,220.074 325.074,210 337.5,210 C349.926,210 360,220.074 360,232.5 z" fill="#EEEEEC"/>
      <path d="M360,232.5 C360,244.926 349.926,255 337.5,255 C325.074,255 315,244.926 315,232.5 C315,220.074 325.074,210 337.5,210 C349.926,210 360,220.074 360,232.5 z" fill-opacity="0" stroke="#294270" stroke-width="2"/>
    </g>
    <g>
      <path d="M420,232.5 C420,244.926 409.926,255 397.5,255 C385.074,255 375,244.926 375,232.5 C375,220.074 385.074,210 397.5,210 C409.926,210 420,220.074 420,232.5 z" fill="#EEEEEC"/>
      <path d="M420,232.5 C420,244.926 409.926,255 397.5,255 C385.074,255 375,244.926 375,232.5 C375,220.074 385.074,210 397.5,210 C409.926,210 420,220.074 420,232.5 z" fill-opacity="0" stroke="#294270" stroke-width="2"/>
    </g>
    <g>
      <path d="M420,172.5 C420,184.926 409.926,195 397.5,195 C385.074,195 375,184.926 375,172.5 C375,160.074 385.074,150 397.5,150 C409.926,150 420,160.074 420,172.5 z" fill="#EEEEEC"/>
      <path d="M420,172.5 C420,184.926 409.926,195 397.5,195 C385.074,195 375,184.926 375,172.5 C375,160.074 385.074,150 397.5,150 C409.926,150 420,160.074 420,172.5 z" fill-opacity="0" stroke="#294270" stroke-width="2"/>
    </g>
    <g>
      <path d="M225,292.5 C225,304.926 214.926,315 202.5,315 C190.074,315 180,304.926 180,292.5 C180,280.074 190.074,270 202.5,270 C214.926,270 225,280.074 225,292.5 z" fill="#888A85"/>
      <path d="M225,292.5 C225,304.926 214.926,315 202.5,315 C190.074,315 180,304.926 180,292.5 C180,280.074 190.074,270 202.5,270 C214.926,270 225,280.074 225,292.5 z" fill-opacity="0" stroke="#294270" stroke-width="2"/>
    </g>
    <g>
      <path d="M285,237.5 C285,249.926 274.926,260 262.5,260 C250.074,260 240,249.926 240,237.5 C240,225.074 250.074,215 262.5,215 C274.926,215 285,225.074 285,237.5 z" fill="#888A85"/>
      <path d="M285,237.5 C285,249.926 274.926,260 262.5,260 C250.074,260 240,249.926 240,237.5 C240,225.074 250.074,215 262.5,215 C274.926,215 285,225.074 285,237.5 z" fill-opacity="0" stroke="#294270" stroke-width="2"/>
    </g>
    <g>
      <path d="M285,172.5 C285,184.926 274.926,195 262.5,195 C250.074,195 240,184.926 240,172.5 C240,160.074 250.074,150 262.5,150 C274.926,150 285,160.074 285,172.5 z" fill="#888A85"/>
      <path d="M285,172.5 C285,184.926 274.926,195 262.5,195 C250.074,195 240,184.926 240,172.5 C240,160.074 250.074,150 262.5,150 C274.926,150 285,160.074 285,172.5 z" fill-opacity="0" stroke="#294270" stroke-width="2"/>
    </g>
    <g>
      <path d="M360,172.5 C360,184.926 349.926,195 337.5,195 C325.074,195 315,184.926 315,172.5 C315,160.074 325.074,150 337.5,150 C349.926,150 360,160.074 360,172.5 z" fill="#888A85"/>
      <path d="M360,172.5 C360,184.926 349.926,195 337.5,195 C325.074,195 315,184.926 315,172.5 C315,160.074 325.074,150 337.5,150 C349.926,150 360,160.074 360,172.5 z" fill-opacity="0" stroke="#294270" stroke-width="2"/>
    </g>
    <g>
      <path d="M420,112.5 C420,124.926 409.926,135 397.5,135 C385.074,135 375,124.926 375,112.5 C375,100.074 385.074,90 397.5,90 C409.926,90 420,100.074 420,112.5 z" fill="#888A85"/>
      <path d="M420,112.5 C420,124.926 409.926,135 397.5,135 C385.074,135 375,124.926 375,112.5 C375,100.074 385.074,90 397.5,90 C409.926,90 420,100.074 420,112.5 z" fill-opacity="0" stroke="#294270" stroke-width="2"/>
    </g>
    <text transform="matrix(1, 0, 0, 1, 446.5, 112.88)">
      <tspan x="-11.5" y="12.12" font-family="LucidaGrande" font-size="36" fill="#0A82BD">8</tspan>
    </text>
    <text transform="matrix(1, 0, 0, 1, 446.5, 172.88)">
      <tspan x="-11.5" y="12.12" font-family="LucidaGrande" font-size="36" fill="#0A82BD">4</tspan>
    </text>
    <text transform="matrix(1, 0, 0, 1, 446.5, 232.88)">
      <tspan x="-11.5" y="12.12" font-family="LucidaGrande" font-size="36" fill="#0A82BD">2</tspan>
    </text>
    <text transform="matrix(1, 0, 0, 1, 446.5, 292.88)">
      <tspan x="-11.5" y="12.12" font-family="LucidaGrande" font-size="36" fill="#0A82BD">1</tspan>
    </text>
    <text transform="matrix(1, 0, 0, 1, 369.5, 404.64)">
      <tspan x="-30.352" y="16.36" font-family="LucidaGrande" font-size="48" fill="#294270">49</tspan>
    </text>
    <text transform="matrix(1, 0, 0, 1, 168, 399.64)">
      <tspan x="-7.594" y="16.36" font-family="LucidaGrande" font-size="48" fill="#294270">:</tspan>
    </text>
    <text transform="matrix(1, 0, 0, 1, 231.5, 404.64)">
      <tspan x="-30.352" y="16.36" font-family="LucidaGrande" font-size="48" fill="#294270">37</tspan>
    </text>
    <text transform="matrix(1, 0, 0, 1, 303, 399.64)">
      <tspan x="-7.594" y="16.36" font-family="LucidaGrande" font-size="48" fill="#294270">:</tspan>
    </text>
    <text transform="matrix(1, 0, 0, 1, 96.5, 404.64)">
      <tspan x="-30.352" y="16.36" font-family="LucidaGrande" font-size="48" fill="#294270">10</tspan>
    </text>
    <text transform="matrix(1, 0, 0, 1, 96.5, 62.88)">
      <tspan x="-26.455" y="12.12" font-family="LucidaGrande" font-size="36" fill="#0070AB">HH</tspan>
    </text>
    <text transform="matrix(1, 0, 0, 1, 166, 57.88)">
      <tspan x="-5.695" y="12.12" font-family="LucidaGrande" font-size="36" fill="#555753">:</tspan>
    </text>
    <text transform="matrix(1, 0, 0, 1, 301, 57.88)">
      <tspan x="-5.695" y="12.12" font-family="LucidaGrande" font-size="36" fill="#555753">:</tspan>
    </text>
    <text transform="matrix(1, 0, 0, 1, 231.5, 62.88)">
      <tspan x="-31.008" y="12.12" font-family="LucidaGrande" font-size="36" fill="#0070AB">MM</tspan>
    </text>
    <text transform="matrix(1, 0, 0, 1, 369.5, 62.88)">
      <tspan x="-19.389" y="12.12" font-family="LucidaGrande" font-size="36" fill="#0070AB">SS</tspan>
    </text>
    <g>
      <path d="M420,292.5 C420,304.926 409.926,315 397.5,315 C385.074,315 375,304.926 375,292.5 C375,280.074 385.074,270 397.5,270 C409.926,270 420,280.074 420,292.5 z" fill="#888A85"/>
      <path d="M420,292.5 C420,304.926 409.926,315 397.5,315 C385.074,315 375,304.926 375,292.5 C375,280.074 385.074,270 397.5,270 C409.926,270 420,280.074 420,292.5 z" fill-opacity="0" stroke="#294270" stroke-width="2"/>
    </g>
    <g>
      <path d="M225,232.5 C225,244.926 214.926,255 202.5,255 C190.074,255 180,244.926 180,232.5 C180,220.074 190.074,210 202.5,210 C214.926,210 225,220.074 225,232.5 z" fill="#888A85"/>
      <path d="M225,232.5 C225,244.926 214.926,255 202.5,255 C190.074,255 180,244.926 180,232.5 C180,220.074 190.074,210 202.5,210 C214.926,210 225,220.074 225,232.5 z" fill-opacity="0" stroke="#294270" stroke-width="2"/>
    </g>
    <text transform="matrix(1, 0, 0, 1, 67.5, 347.12)">
      <tspan x="-11.382" y="12.12" font-family="LucidaGrande" font-size="36" fill="#0A82BD">1</tspan>
    </text>
    <text transform="matrix(1, 0, 0, 1, 127.5, 347.12)">
      <tspan x="-11.382" y="12.12" font-family="LucidaGrande" font-size="36" fill="#0A82BD">0</tspan>
    </text>
    <text transform="matrix(1, 0, 0, 1, 262.5, 347.12)">
      <tspan x="-11.382" y="12.12" font-family="LucidaGrande" font-size="36" fill="#0A82BD">7</tspan>
    </text>
    <text transform="matrix(1, 0, 0, 1, 202.5, 347.12)">
      <tspan x="-11.382" y="12.12" font-family="LucidaGrande" font-size="36" fill="#0A82BD">3</tspan>
    </text>
    <text transform="matrix(1, 0, 0, 1, 397.5, 347.12)">
      <tspan x="-11.382" y="12.12" font-family="LucidaGrande" font-size="36" fill="#0A82BD">9</tspan>
    </text>
    <text transform="matrix(1, 0, 0, 1, 337.5, 347.12)">
      <tspan x="-11.382" y="12.12" font-family="LucidaGrande" font-size="36" fill="#0A82BD">4</tspan>
    </text>
    <g>
      <path d="M285,292.5 C285,304.926 274.926,315 262.5,315 C250.074,315 240,304.926 240,292.5 C240,280.074 250.074,270 262.5,270 C274.926,270 285,280.074 285,292.5 z" fill="#888A85"/>
      <path d="M285,292.5 C285,304.926 274.926,315 262.5,315 C250.074,315 240,304.926 240,292.5 C240,280.074 250.074,270 262.5,270 C274.926,270 285,280.074 285,292.5 z" fill-opacity="0" stroke="#294270" stroke-width="2"/>
    </g>
  </g>
  <defs/>
</svg>
